<?xml version="1.0" encoding="UTF-8"?> <svg xmlns="http://www.w3.org/2000/svg" xmlns:xlink="http://www.w3.org/1999/xlink" viewBox="0 0 540 540"><defs><style>.cls-1{fill:none;}.cls-2{fill:#d68388;}.cls-3{fill:#988bb3;}.cls-4{fill:#fcbb47;}.cls-5{fill:#543e81;}.cls-6{clip-path:url(#clip-path);}.cls-7{fill:#76659a;}.cls-8{fill:#183059;}.cls-9{fill:#ebf0f5;}.cls-10{fill:#fccc75;}.cls-11{fill:#feeed1;}.cls-12{fill:#143059;}.cls-13{fill:#445a7a;}.cls-14{fill:#f9a97a;}.cls-15{fill:#7d797b;}.cls-16{fill:#e2dcd7;}.cls-17{fill:#b6b2b0;}.cls-18{fill:#fff;}</style><clipPath id="clip-path"><path class="cls-1" d="M225.74,434.58a124,124,0,0,1-94.14-43.14c-18.78-21.77-79.47-50.69-85.37-81.13C-12.1,9.21,164.62,121.15,265.91,143.64c92.31,20.49,46.47,77.59,46.47,77.59a124.26,124.26,0,0,1-86.64,213.35"></path></clipPath></defs><g id="BG"><rect class="cls-2" width="540" height="540"></rect></g><g id="Illos"><path class="cls-3" d="M381.08,434.58A124.27,124.27,0,1,1,505.35,310.31,124.28,124.28,0,0,1,381.08,434.58"></path><path class="cls-4" d="M225.74,434.58A124.27,124.27,0,1,1,350,310.31,124.27,124.27,0,0,1,225.74,434.58"></path><path class="cls-5" d="M303.41,407.24a124.08,124.08,0,0,1,0-193.85,124.1,124.1,0,0,1,0,193.85"></path><g class="cls-6"><path class="cls-7" d="M66.5,139.4l0-.15a8.2,8.2,0,0,0-.37-4.65l-.13-.32a.72.72,0,0,0-1.35,0l-4.92,13.42,1.88,1Z"></path><path class="cls-8" d="M70.45,123.2,59.26,155.56a8.81,8.81,0,0,1,4.39,2.3l.86.85s-2.87,1.88-5.43.27l-.83,2.71a3.22,3.22,0,0,0,2,4L76,171.39a2.29,2.29,0,0,0,2.89-1.22l4.08-10.06-.69-.22a3.4,3.4,0,0,1-2.31-2.67l-.17-1.06,4,.19,8.43-22.83a1.9,1.9,0,0,0-1-2.37l-18.46-8.93A1.7,1.7,0,0,0,70.45,123.2Z"></path><circle class="cls-9" cx="69.21" cy="165.18" r="1.67"></circle><path class="cls-9" d="M62.22,157.89l17.08,6.34L90.2,133.8a1.08,1.08,0,0,0-.54-1.33L73.15,124.4a1,1,0,0,0-1.4.58l-10.16,29.4C62.47,154.75,62.84,156.84,62.22,157.89Z"></path><path class="cls-3" d="M74.75,181.65a7.09,7.09,0,0,1,3.64-4.78l2.46-1.3a8.79,8.79,0,0,0,4-4.38l5-11.94a1.94,1.94,0,0,0-1.7-2.68l-8.41-.41.17,1.06a3.4,3.4,0,0,0,2.31,2.67l.69.22-4.08,10.06A2.29,2.29,0,0,1,76,171.39l-15.73-5.72a3.22,3.22,0,0,1-2-4l.83-2.71c2.56,1.61,5.43-.27,5.43-.27l-.86-.85a8.82,8.82,0,0,0-4.84-2.41l-2.16-.33a2.66,2.66,0,0,0-3,2.9l1.21,11.39a9.88,9.88,0,0,0,.27,1.44,9.45,9.45,0,0,0,1.43,2.92,16.06,16.06,0,0,1,2.5,5.72Z"></path><path class="cls-3" d="M55.31,155.51l7.62,1.77c6.81.38,7.26-2.31,7.26-2.31L57.8,150.38l-1.38.74a2,2,0,0,0-1,1.66Z"></path><path class="cls-3" d="M57.8,150.38l-.17-1a2,2,0,0,1,1.61-2.26h0a4.12,4.12,0,0,1,2,.18l14.18,5.07s-.44,2.69-7.26,2.3Z"></path><path class="cls-10" d="M74.77,265.2c-3-4.08-13.24-73.39-13.24-73.39L78,189.36l.63,1.94,15.75,48.33c.26.69,1.67,3.49,2.37,3.26l69.26-2.34,7.13,34-23.93,6.31S77.81,269.29,74.77,265.2Z"></path><path class="cls-11" d="M146.19,357.16a201,201,0,0,1-3.34,23s36.13,17.72,85.9,9.54c0,0-7.5-23.86,6.82-38.18l13.7-98.64-40-21.52-46.7,9-19.46,49.68a29.69,29.69,0,0,0-1.67,15.58L145,327.59A122,122,0,0,1,146.19,357.16Z"></path><path class="cls-12" d="M202.51,417.73a159,159,0,0,0,35.62-4c-2.65-9.82-5.76-18.34-9.38-24.07-49.77,8.18-85.9-9.54-85.9-9.54s-1.8,8.76-4.32,23.45C155.43,412.39,177.88,417.73,202.51,417.73Z"></path><path class="cls-13" d="M258.74,566.29s-8.69-35.79-7.5-64.43c0,0-3.55-52.59-13.11-88.08a159,159,0,0,1-35.62,4c-24.63,0-47.08-5.34-64-14.11C133.5,433,125.59,486,123.36,540.4A14.67,14.67,0,0,0,130,553.3C147.91,565,198.74,591.65,258.74,566.29Z"></path><line class="cls-14" x1="245.89" y1="483.31" x2="245.86" y2="483.43"></line><path class="cls-1" d="M239.52,430.13a14.79,14.79,0,0,0-6.94,8.3c-.53,1.61-.78,3.3-1.23,4.94a20.58,20.58,0,0,1-3.23,6.72,9.64,9.64,0,0,0,7.18-8.33"></path><path class="cls-1" d="M238.81,428.54l.13.35"></path><path class="cls-10" d="M201.88,226.16c-.3-.31-1.28-.8-1.56-1.11a45.76,45.76,0,0,1-20.27-1,3.58,3.58,0,0,0-4.4,2.4,21.79,21.79,0,0,0-.89,10.23,7.3,7.3,0,0,0,2.53,4.36c8.75,7.22,19.13,7.28,25.22,6.49C207.57,234.8,201.88,226.16,201.88,226.16Z"></path><path class="cls-3" d="M200,225.12c-4.84-10.25-8.48-14.06-2-27,.31-.62.6-1.22.87-1.79.09-.2.16-.38.25-.57.17-.37.33-.74.48-1.09l.25-.63c.12-.31.25-.62.36-.91s.14-.42.21-.63.19-.54.27-.8.12-.41.17-.61.14-.49.2-.72.08-.38.12-.57.1-.45.13-.66,0-.36.08-.53.05-.41.07-.61,0-.33,0-.49,0-.39,0-.57,0-.3,0-.45,0-.36,0-.54l-.06-.41c0-.17-.06-.34-.1-.51l-.09-.36c-.05-.18-.1-.34-.16-.51l-.12-.32c-.07-.17-.14-.33-.22-.49s-.09-.19-.14-.27-.19-.35-.29-.52l-.14-.21c-.12-.19-.25-.37-.39-.55a1.71,1.71,0,0,1-.11-.14c-.17-.21-.35-.42-.54-.62l0,0c-3.21-3.46-9.06-6-14.42-12.49h0a26.3,26.3,0,0,1-5-8,37.37,37.37,0,0,0-2.94,3.8,20.43,20.43,0,0,0-3.8,11.31c0,1.61.27,3.28-.3,4.77-.76,2-2.77,3.15-4,4.86-1.68,2.32-1.81,5.42-1.35,8.25s1.44,5.54,1.78,8.38c.23,1.89.24,4,1.5,5.39,1.46,1.63,4,1.68,5.91,2.67a8.81,8.81,0,0,1,4.27,6.48,25,25,0,0,1-.25,7.72c.47.14,1,.27,1.46.39l.19,0c.48.12,1,.24,1.49.34l.06,0c1.11.23,2.26.43,3.46.59h0A48.34,48.34,0,0,0,200,225.12Z"></path><path class="cls-11" d="M266.85,354.66,258.66,267a18,18,0,0,0-35.89,1.69,19.08,19.08,0,0,0,.19,2.64l12.77,87.06-.13,61.07,18.29,2.8,12.72-63a15.36,15.36,0,0,0,.31-3.12A14.52,14.52,0,0,0,266.85,354.66Z"></path><polygon class="cls-12" points="235.6 419.5 235.57 432.83 251.25 435.39 253.89 422.3 235.6 419.5"></polygon><path class="cls-12" d="M246.58,276.86c9.42-15.15-1-24-5.84-38.11-6.78-19.66,6-35.2,5.24-54.58s-15.77-35.79-35.06-39c-14.13-2.36-41,3-27.94,21.24,10.88,15.22,25.28,11.45,15,31.74-7.27,14.38-1.92,17.47,3.65,30.75,6.61,15.81-8.51,29.36-1.75,45.15C207.74,292.34,236,293.84,246.58,276.86Z"></path><path class="cls-8" d="M180.05,224.08l.4.11a25,25,0,0,0,.25-7.72,8.81,8.81,0,0,0-4.27-6.48c-2-1-4.45-1-5.91-2.67-1.26-1.42-1.27-3.5-1.5-5.39-.34-2.84-1.32-5.56-1.78-8.38s-.33-5.93,1.35-8.25c1.25-1.71,3.26-2.88,4-4.86.57-1.49.31-3.16.3-4.77a20.43,20.43,0,0,1,3.8-11.31,37.37,37.37,0,0,1,2.94-3.8,26.3,26.3,0,0,0,5,8h0c.21.26.43.5.64.75l.69.66c.38-4.29-.57-10.59-1.4-14.83-17.8,8.43-41.8,54.06-18.58,80.9l2.06,4.11,6.86-2.28-.28-2a22.31,22.31,0,0,1,1-9.41A3.58,3.58,0,0,1,180.05,224.08Z"></path><path class="cls-10" d="M171.12,186.29a5.52,5.52,0,0,0,6.75-3.12l2.46.78a5.52,5.52,0,0,0,10.38,3.72l14,4.41.3-1-14-4.41a5.52,5.52,0,0,0-10.3-3.7l-2.54-.8a5.52,5.52,0,1,0-7,4.07Zm10.09-2.13a4.62,4.62,0,1,1,3,5.79A4.63,4.63,0,0,1,181.21,184.16Zm-12.83-4.52a4.61,4.61,0,1,1,3,5.79A4.61,4.61,0,0,1,168.38,179.64Z"></path><path class="cls-10" d="M168.1,184l.66-.68a4.58,4.58,0,0,1,2.9-6.7c0-.31,0-.63,0-.94A5.51,5.51,0,0,0,168.1,184Z"></path><path class="cls-15" d="M299.92,495.3l27.26-14.14c.08,1.58,1.17,15.81,1.2,17.46.64,35.93,8.91,58.69,19.48,71.5,3.73,4.52,24.23,17.37,28.23,34.56,2.79,12,5.6,25.77,14.29,39.05l-17.69,19.51a161.38,161.38,0,0,0-53.24-67,46.91,46.91,0,0,1-14-16.58L284.3,538Z"></path><path class="cls-3" d="M222.14,393.66l-34.6,54a1.23,1.23,0,0,0,.22,1.59l13.93,12.51a1.24,1.24,0,0,0,1.71,0l36.16-36.13a1.25,1.25,0,0,0,.23-1.45L224.3,393.77A1.25,1.25,0,0,0,222.14,393.66Z"></path><path class="cls-16" d="M184.51,477.55l7.86-24.2,8.56,7.68,1.19,26a.88.88,0,0,1-1.59.57c-2.84-3.72-3.42-10.1-3.42-10.1l-1,10.74,3.32,4.62c2.93.8,4.82,3.25,5.82,5a.72.72,0,0,1-.9,1l-7-2.93-5.27-5.09c2.62,3.83,3.42,10,3.66,14a.86.86,0,0,1-1.63.41l-6.42-13.78-.46,4.32c1.49,4.67.64,7.39-.09,8.69a.58.58,0,0,1-1.06-.11l-2.57-8.82Z"></path><path class="cls-17" d="M238.88,465.65,305,431.2v.17s19.94,15,22.22,50L299.92,495.3l-31.77,86.81s15.15,20.17,13.33,54.78c-.47,8.92,1.2,24.65,3.75,33.93L258,672.29c-6.59-17.22-26-61.1-33.86-78.65a27.81,27.81,0,0,1-2.1-15.51Z"></path><path class="cls-8" d="M231.49,286.38,270,277.74s27.25,9.91,28.27,28.66L305,431.2l-72,37.56s-4.44-60.06-20-88.39S223.86,319.32,231.49,286.38Z"></path><path class="cls-5" d="M248.22,260.19l49.44,20.7s43.88-85-28.16-109c0,0-33.46-8.24-46.39,34.27s-8.81,67.17-8.81,67.17l30.12-4.1Z"></path><path class="cls-16" d="M262,177.61s-10.1,9.4-6.74,38c2.78,23.76,27.3,1.09,27.3,1.09l-14.77,51.71-2.27,10.23-29.38-2.25s20.12-29.88,2.76-36.06c-9.41-3.35-6.83-7.22-6.34-10.44.64-4.11-.37-4.07-.36-5.37a1.85,1.85,0,0,1,1.14-1.69l.6-.21-1.25-1.5a1.23,1.23,0,0,1-.1-1.62l1.52-3.54-.95-.53a3.08,3.08,0,0,1-1.36-3.8l5.48-9a10.82,10.82,0,0,0,1-3l.84-4.85S242.52,179.13,262,177.61Z"></path><path class="cls-3" d="M235.4,291.76l34.61-14-1.69-6.65a1.22,1.22,0,0,0-1.36-.9l-32.17,4.66-1.19,15.6A1.31,1.31,0,0,0,235.4,291.76Z"></path><path class="cls-3" d="M259.63,304.88h.05a19.64,19.64,0,0,1,38.95,2h0l7.79,143.53a2,2,0,0,1-1.86,2.07l-24.7,1.34a.46.46,0,0,1-.47-.35c-1-3.91-9.14-37.68-7-64C274.77,361.45,255.89,319.92,259.63,304.88Z"></path><path class="cls-16" d="M302.59,469.07l7.25,11.57A3.29,3.29,0,0,1,309,485l-1.49,1.09.93,2.9a2.14,2.14,0,0,1-1.21,2.65L304.18,493l.35,1.38a3.49,3.49,0,0,1-2.31,4.16l-2.18.7.86,4.42A3.21,3.21,0,0,1,299,507.2a3.12,3.12,0,0,1-3.9-1.4l-11.83-21.7a14.93,14.93,0,0,1-1.8-6.36l-.58-13,20.73-1.12,0,2.47A6,6,0,0,0,302.59,469.07Z"></path><path class="cls-18" d="M301.42,453.06l.49,10.26a.33.33,0,0,1-.32.35l-20.92,1.06a.33.33,0,0,1-.35-.31l-.49-10.26a.35.35,0,0,1,.32-.35l20.92-1.06A.33.33,0,0,1,301.42,453.06Z"></path><polygon class="cls-8" points="283.66 464.6 293.3 464.1 292.86 453.11 283.21 453.6 283.66 464.6"></polygon><polygon class="cls-5" points="254.7 200.68 251.94 283.93 297.66 280.89 294.16 207.04 254.7 200.68"></polygon><path class="cls-8" d="M75.45,180l-16.69-.86A24.15,24.15,0,0,1,60.3,185l1.23,6.81L78,189.36Z"></path></g><path class="cls-18" d="M82.12,97.19a5.35,5.35,0,0,1,7.56-7.56A3.8,3.8,0,0,1,90,90l.33-.37a5.35,5.35,0,0,1,7.57,7.56L90.3,104.8a.4.4,0,0,1-.29.12.42.42,0,0,1-.29-.12Z"></path><path class="cls-8" d="M68.74,82.16v27a1.5,1.5,0,0,0,1.5,1.5h15l4.26,5.7a.62.62,0,0,0,1,0l4-5.68h15.3a1.5,1.5,0,0,0,1.5-1.5V82.16a1.5,1.5,0,0,0-1.5-1.5H70.24A1.5,1.5,0,0,0,68.74,82.16ZM90,104.92a.42.42,0,0,1-.29-.12l-7.6-7.61a5.35,5.35,0,0,1,7.56-7.56A3.8,3.8,0,0,1,90,90l.33-.37a5.35,5.35,0,0,1,7.57,7.56L90.3,104.8A.4.4,0,0,1,90,104.92Z"></path></g></svg> 