<?xml version='1.0' encoding='utf-8'?>
<svg xmlns="http://www.w3.org/2000/svg" width="91.44mm" height="91.44mm" version="1.1" style="shape-rendering:geometricPrecision; text-rendering:geometricPrecision; image-rendering:optimizeQuality; fill-rule:evenodd; clip-rule:evenodd" viewBox="0 0 148.46 148.46"> <defs> <style type="text/css">  .fil1 {fill:white;fill-rule:nonzero} .fil0 {fill:url(#id0)}  </style> <linearGradient id="id0" gradientUnits="userSpaceOnUse" x1="139.55" y1="8.9" x2="8.9" y2="139.55"> <stop offset="0" style="stop-opacity:1; stop-color:#EC268F"/> <stop offset="1" style="stop-opacity:1; stop-color:#F58634"/> </linearGradient> </defs> <g id="Camada_x0020_1"> <metadata id="CorelCorpID_0Corel-Layer"/> <polygon class="fil0" points="-0,148.46 148.46,148.46 148.46,0 -0,0 "/> <path class="fil1" d="M40.39 43.95l67.58 -0.31c0.27,-0.02 0.54,0.04 0.79,0.18 0.66,0.38 0.88,1.22 0.49,1.88l-34.09 58.42c-0.19,0.35 -0.54,0.61 -0.96,0.69 -0.75,0.13 -1.46,-0.36 -1.59,-1.11l-6.19 -34.65 -26.9 -22.68c-0.58,-0.49 -0.65,-1.35 -0.17,-1.93 0.27,-0.32 0.65,-0.49 1.04,-0.49zm63.88 4.83l-35.07 20.25 5.45 30.51 29.62 -50.76zm-1.37 -2.38l-58.79 0.27 23.71 19.98 35.08 -20.25z"/> </g> </svg>